<svg width="40" height="41" viewBox="0 0 40 41" fill="none" xmlns="http://www.w3.org/2000/svg">
<g clip-path="url(#clip0_131_32685)">
<path d="M36.0892 14.2158C34.4905 11.5593 31.8322 9.67583 28.7958 9.04846C26.9197 8.66069 25.0136 8.76341 23.2379 9.31555C23.9348 7.88661 25.0408 6.67195 26.4142 5.86295C27.6761 5.11973 28.0981 3.48839 27.3548 2.22638C26.9947 1.61511 26.4181 1.18061 25.7313 1.00297C25.0445 0.825328 24.3295 0.92571 23.7182 1.28584C21.6456 2.50659 19.9677 4.24371 18.8194 6.29799C18.4839 3.27754 15.9165 0.920554 12.808 0.920554H10.1825C9.75118 0.920554 9.40136 1.27029 9.40136 1.70174V4.32722C9.40136 6.19449 10.2521 7.86653 11.5859 8.97707C11.4586 8.99886 11.3313 9.02206 11.2042 9.04831C8.16787 9.67568 5.50958 11.5591 3.91089 14.2156C2.31219 16.8721 1.8927 20.1032 2.76005 23.0798L5.91908 33.9211C7.13413 38.0907 10.9697 40.9176 15.2431 40.9174C15.5433 40.9174 15.8463 40.9034 16.1499 40.8749C17.5209 40.7466 18.8139 40.3435 19.9998 39.6753C21.1859 40.3435 22.4788 40.7467 23.8498 40.8749C24.1538 40.9034 24.4562 40.9174 24.7566 40.9174C29.0297 40.9174 32.8657 38.0905 34.0806 33.9211L34.7657 31.57C34.8864 31.1558 34.6485 30.7222 34.2343 30.6015C33.8201 30.4808 33.3864 30.7187 33.2658 31.1329L32.5807 33.484C31.4895 37.2288 27.8785 39.6829 23.9954 39.3193C22.7086 39.1988 21.5043 38.7903 20.4161 38.105C20.1616 37.9448 19.8381 37.9448 19.5836 38.105C18.4953 38.7903 17.291 39.1989 16.0043 39.3193C12.1209 39.6827 8.51011 37.2286 7.41903 33.484L4.26 22.6426C3.50319 20.0457 3.85464 17.339 5.24937 15.0214C6.64417 12.7037 8.87117 11.1259 11.5202 10.5784C14.3518 9.99339 17.2626 10.7051 19.5069 12.531C19.7941 12.7646 20.2057 12.7646 20.4929 12.531C22.7373 10.705 25.6483 9.99339 28.4795 10.5784C31.1286 11.1258 33.3556 12.7037 34.7504 15.0214C36.1451 17.339 36.4966 20.0457 35.7398 22.6427L35.232 24.3854C35.1113 24.7996 35.3493 25.2332 35.7634 25.3539C36.1777 25.4746 36.6113 25.2367 36.732 24.8225L37.2397 23.0799C38.1073 20.1032 37.6879 16.8723 36.0892 14.2158ZM10.9637 4.32738V2.483H12.808C15.2822 2.483 17.2952 4.49596 17.2952 6.9702V7.70975L15.1339 5.54845C14.8287 5.24339 14.3342 5.24339 14.029 5.54845C13.724 5.8535 13.724 6.34815 14.029 6.6532L16.1903 8.8145H15.4507C12.9765 8.81458 10.9637 6.80162 10.9637 4.32738ZM20 10.94C19.6631 10.6954 19.3146 10.4717 18.9569 10.2681C19.6769 7.06277 21.6772 4.30121 24.5111 2.63197C24.7627 2.4837 25.057 2.44238 25.3399 2.5155C25.6228 2.5887 25.8602 2.76759 26.0086 3.01928C26.3146 3.53893 26.1408 4.21067 25.6213 4.51666C23.5129 5.75843 21.933 7.80029 21.243 10.1563C20.8148 10.3886 20.3995 10.65 20 10.94Z" fill="white"/>
<path d="M12.9451 14.8541C13.3676 14.7668 13.6394 14.3536 13.552 13.9311C13.4648 13.5086 13.0513 13.237 12.629 13.3241C10.7724 13.7078 9.1471 14.8593 8.16961 16.4835C7.19211 18.1078 6.93565 20.0832 7.46599 21.9032C7.56536 22.2445 7.87729 22.466 8.21562 22.466C8.28803 22.466 8.36154 22.4559 8.43458 22.4346C8.84877 22.3139 9.08672 21.8803 8.96602 21.4661C8.55122 20.0428 8.74386 18.5593 9.50824 17.2891C10.2726 16.0189 11.4932 15.1541 12.9451 14.8541Z" fill="white"/>
<path d="M34.9987 28.76C35.4302 28.76 35.7799 28.4102 35.7799 27.9788C35.7799 27.5474 35.4302 27.1976 34.9987 27.1976C34.5673 27.1976 34.2175 27.5474 34.2175 27.9788C34.2175 28.4102 34.5673 28.76 34.9987 28.76Z" fill="white"/>
</g>
<defs>
<clipPath id="clip0_131_32685">
<rect width="40" height="40" fill="white" transform="translate(0 0.917236)"/>
</clipPath>
</defs>
</svg>
