<svg width="40" height="40" viewBox="0 0 40 40" fill="none" xmlns="http://www.w3.org/2000/svg">
<g clip-path="url(#clip0_131_32691)">
<path d="M10.8487 35.5825L10.8286 35.5712C10.4529 35.3585 9.97621 35.4903 9.7638 35.8657C9.55079 36.241 9.68293 36.7177 10.0583 36.9304L10.0784 36.942C10.2002 37.011 10.3323 37.0436 10.463 37.0436C10.7352 37.0436 10.9995 36.9011 11.1432 36.6475C11.3559 36.2718 11.2241 35.7952 10.8487 35.5825Z" fill="white"/>
<path d="M35.7288 16.1275C36.1228 15.7433 36.4643 15.3032 36.7371 14.8229C37.5116 13.4603 37.7088 11.8776 37.2925 10.3664C36.8765 8.85552 35.8969 7.59669 34.5343 6.82246V6.82277C33.9264 6.47731 33.2785 6.24752 32.601 6.13552C32.1515 4.04601 30.8432 2.15547 28.8397 1.01718C27.0361 -0.00759086 24.9414 -0.268513 22.9416 0.282017C21.1322 0.780363 19.5966 1.88905 18.5611 3.43139C18.3585 3.26874 18.1424 3.12225 17.9132 2.99195C16.7798 2.34803 15.4633 2.18385 14.2063 2.52991C13.9505 2.60041 13.7039 2.69105 13.4668 2.79938C13.2849 2.6529 13.0914 2.52076 12.8867 2.40449C10.7962 1.21676 8.12929 1.951 6.94185 4.04143C6.70503 4.45799 6.54207 4.90049 6.45265 5.36191C5.058 5.8685 3.89986 6.842 3.15889 8.1463C1.86312 10.4269 2.16341 13.1847 3.69966 15.125C2.75057 17.1345 3.49794 19.5747 5.46175 20.6904C5.74159 20.8497 6.03517 20.9757 6.33913 21.0679C6.51949 22.1098 7.17439 23.0778 8.09236 23.5993C8.6487 23.9155 9.2441 24.0741 9.84407 24.0741C9.96889 24.0741 10.0937 24.0674 10.2182 24.0537L10.2204 24.5655L5.25575 33.3032C5.21578 33.3733 5.18801 33.4475 5.17153 33.5226C5.16054 33.5726 5.15474 33.623 5.15383 33.6733C5.14833 33.9504 5.29116 34.2217 5.54903 34.3682L7.89003 35.6985C8.0121 35.7677 8.14455 35.8007 8.27516 35.8007C8.54708 35.8007 8.81136 35.6585 8.9554 35.4052C9.16841 35.0301 9.03719 34.5531 8.66213 34.3401L7.00014 33.3956L11.6815 25.1566C11.749 25.0379 11.7841 24.9039 11.7838 24.7675L11.7514 16.6389C11.7539 16.6374 11.756 16.6362 11.7584 16.6347C11.76 16.6337 11.7615 16.6328 11.763 16.6319L11.7636 16.6316C11.7969 16.6121 11.8302 16.5922 11.8631 16.5721C11.8677 16.5694 11.8726 16.5663 11.8768 16.5636L11.9232 16.5349C11.948 16.5196 11.9724 16.504 11.9986 16.487L12.0258 16.4693C12.0563 16.4494 12.0862 16.4293 12.1164 16.4091C12.1329 16.3978 12.1491 16.3866 12.1628 16.3771C12.1826 16.3637 12.2022 16.3496 12.222 16.3356L12.2672 16.3026C12.3017 16.2779 12.3358 16.2529 12.3697 16.2273C12.3792 16.2202 12.3889 16.2129 12.3981 16.2059L12.4433 16.1711C12.4661 16.1534 12.4887 16.1354 12.5147 16.115L12.5388 16.0954C12.5626 16.0759 12.5864 16.0564 12.6102 16.0365C12.6166 16.031 12.6224 16.0265 12.6291 16.0207L12.6563 15.9978C12.6822 15.9758 12.7081 15.9532 12.735 15.9297L12.7634 15.9044C12.7701 15.8983 12.7771 15.8919 12.7835 15.8861C12.8009 15.8705 12.8183 15.8546 12.8357 15.8388C12.8391 15.8357 12.8421 15.833 12.8455 15.8299L12.8641 15.8125C12.8931 15.7854 12.9218 15.7582 12.9508 15.7301L12.9651 15.7161C12.9843 15.6975 13.0033 15.6786 13.0222 15.6596C13.0283 15.6535 13.035 15.6477 13.0411 15.6413H13.0414C13.0942 15.6844 13.1479 15.7262 13.2025 15.7671C13.2211 15.7808 13.2401 15.7936 13.2587 15.807C13.2956 15.8339 13.3325 15.8604 13.3704 15.8861C13.3747 15.8891 13.3789 15.8925 13.3832 15.8952L14.8538 22.7338L13.6707 24.816C13.4577 25.1911 13.5889 25.6678 13.9639 25.8811C14.0857 25.9503 14.2185 25.983 14.3491 25.983C14.621 25.983 14.8853 25.8411 15.029 25.5878L18.9099 18.758L19.0549 18.9003C19.0622 18.907 19.0689 18.9143 19.0763 18.9213L19.1138 18.9579C19.13 18.9729 19.1464 18.9878 19.1614 19.0016L19.1745 19.0135C19.1913 19.0287 19.2081 19.0437 19.224 19.0574L19.2377 19.0699C19.2545 19.0843 19.271 19.0986 19.2868 19.112L19.3686 19.1807C19.3872 19.196 19.4055 19.2109 19.4248 19.2262L19.4336 19.2335C19.4525 19.2485 19.4715 19.2631 19.4913 19.2787L19.5731 19.3409C19.5923 19.3553 19.6118 19.3696 19.632 19.3843L19.6454 19.394C19.6646 19.4081 19.6842 19.4218 19.7019 19.4343L19.7168 19.4447C19.737 19.4587 19.7574 19.4728 19.776 19.4856L19.7867 19.4926C19.8071 19.5063 19.8279 19.5201 19.852 19.5362L19.8636 19.5436C19.8837 19.557 19.9042 19.5701 19.9283 19.5854L19.9378 19.5912C19.9594 19.6049 19.9811 19.6183 19.9982 19.6287C20.0006 19.6302 20.0031 19.6318 20.0055 19.6333C20.0556 19.6638 20.1062 19.6937 20.1572 19.7227C20.1795 19.7355 20.202 19.748 20.2283 19.7624L20.2677 19.7819C20.3864 19.846 20.5066 19.9067 20.6287 19.9616L20.6372 19.9659L20.6436 19.9684C20.8069 20.041 20.9732 20.1057 21.1417 20.1621L21.1563 20.1676C21.1591 20.1686 21.1615 20.1695 21.1643 20.1704L21.3696 20.2339C21.3727 20.2348 21.3754 20.2354 21.3785 20.2363L21.4408 20.2537C21.4441 20.2546 21.4472 20.2555 21.4505 20.2564L21.5152 20.2735C21.5347 20.2787 21.5543 20.2836 21.5695 20.2873L21.6611 20.3092C21.684 20.3144 21.7069 20.3196 21.7304 20.3248C21.731 20.3248 21.7319 20.3251 21.7325 20.3251C21.7526 20.3294 21.7728 20.3337 21.7929 20.3379C21.7969 20.3385 21.8024 20.3398 21.8042 20.3401L21.9113 20.3608C21.9122 20.3608 21.9199 20.362 21.9205 20.3623L21.9815 20.3709C22.0835 20.388 22.1857 20.402 22.2882 20.4136L22.3551 20.4228L22.3871 20.4243C22.5391 20.4386 22.692 20.446 22.8446 20.4475L22.8876 20.4496L18.7125 27.7972C18.5434 28.0951 18.588 28.4686 18.8226 28.7183C19.0573 28.9682 19.4275 29.0356 19.7351 28.8849L25.7273 25.9531C25.827 26.2448 25.9522 26.5274 26.1008 26.7975L22.8531 28.8922C22.8528 28.8922 22.8528 28.8925 22.8525 28.8928L19.541 31.0284L15.6958 33.0697C15.3147 33.2717 15.1697 33.7447 15.372 34.1259C15.5124 34.3902 15.7828 34.5409 16.0626 34.5409C16.1862 34.5409 16.3117 34.5116 16.4282 34.4497L17.9306 33.6523L15.3729 38.1536L13.8645 37.2966C13.4891 37.0833 13.0124 37.2146 12.7991 37.5899C12.5861 37.965 12.7173 38.442 13.0924 38.655L15.2802 39.8979C15.3989 39.9654 15.5319 40.0002 15.6659 40.0002C15.7355 40.0002 15.8054 39.9907 15.8734 39.9721C16.073 39.9168 16.243 39.785 16.3452 39.6047L20.5213 32.2555L22.8598 30.747C23.2572 31.5857 23.9032 32.2918 24.7247 32.7587C25.4337 33.1616 26.2055 33.3526 26.9675 33.3526C28.5541 33.3526 30.0977 32.5238 30.936 31.0485C31.2079 30.5697 31.3904 30.0473 31.4755 29.508C33.0734 29.2941 34.5575 28.3633 35.4135 26.857C36.0486 25.7395 36.2552 24.4596 36.0126 23.2114C36.4383 22.8657 36.7996 22.4415 37.0722 21.9614C38.215 19.9494 37.6035 17.4129 35.7288 16.1275ZM33.7625 8.18109C34.7623 8.74902 35.481 9.67247 35.7862 10.7812C36.0916 11.8898 35.947 13.051 35.3787 14.0508C35.2777 14.2287 35.166 14.3971 35.044 14.5561C34.9149 13.9852 34.7061 13.4398 34.429 12.932C34.4248 12.9241 34.4205 12.9161 34.4162 12.9085C34.379 12.8408 34.3402 12.7739 34.3002 12.7077C34.2859 12.6836 34.2716 12.6592 34.2566 12.6354C34.2243 12.5826 34.1907 12.5307 34.1565 12.4788C34.1324 12.4425 34.108 12.4062 34.0833 12.3702C34.0552 12.3293 34.0262 12.2887 33.9969 12.2487C33.9643 12.2036 33.931 12.1587 33.8971 12.1145C33.8727 12.0827 33.848 12.0507 33.8226 12.0192C33.7824 11.9686 33.7409 11.9188 33.6987 11.8694C33.6771 11.8441 33.6557 11.8184 33.6334 11.7934C33.5864 11.74 33.5382 11.6875 33.4894 11.6356C33.4699 11.6146 33.4503 11.5935 33.4302 11.5728C33.378 11.5188 33.3243 11.4657 33.27 11.4135C33.2511 11.3955 33.2327 11.3772 33.2135 11.3592C33.1571 11.3061 33.0988 11.2542 33.0402 11.2032C33.0216 11.187 33.0036 11.1703 32.9846 11.1544C32.9242 11.1028 32.862 11.0528 32.7994 11.0036C32.7808 10.989 32.7631 10.974 32.7445 10.9597C32.6782 10.9087 32.6105 10.8596 32.5418 10.8111C32.526 10.7998 32.5101 10.7876 32.4939 10.7763C32.4088 10.7171 32.3221 10.6597 32.2339 10.6045C32.2403 10.5886 32.2455 10.5721 32.2519 10.5559C32.2544 10.5495 32.2565 10.5428 32.2589 10.5364C32.6059 9.6331 32.7731 8.69683 32.7738 7.77063C33.1162 7.86463 33.4467 8.00165 33.7625 8.18109ZM12.0868 3.74725C11.9675 3.86474 11.8537 3.98864 11.7462 4.11864C11.7432 4.1223 11.7401 4.12627 11.7368 4.13024C11.6471 4.23979 11.5613 4.35332 11.4804 4.47111C11.456 4.50651 11.4322 4.54222 11.4087 4.57823C11.3947 4.5999 11.3809 4.62126 11.3672 4.64323C11.3297 4.70274 11.2934 4.76286 11.2586 4.8242C11.1444 5.025 11.0452 5.2316 10.9613 5.444C10.8728 5.40769 10.784 5.37412 10.6943 5.34207C10.6696 5.33323 10.6449 5.32529 10.6201 5.31675C10.5548 5.29416 10.4892 5.2725 10.4233 5.25205C10.3937 5.2432 10.3644 5.23465 10.3348 5.22611C10.2719 5.2078 10.2091 5.1904 10.1456 5.17423C10.1163 5.1666 10.0867 5.15928 10.0571 5.15195C9.99056 5.13608 9.92372 5.12113 9.85658 5.1074C9.83125 5.10221 9.80593 5.09641 9.7806 5.09153C9.69728 5.07535 9.61366 5.06101 9.52974 5.0485C9.52089 5.04728 9.51204 5.04545 9.50319 5.04423C9.40645 5.02988 9.3091 5.01798 9.21175 5.00852C9.20503 5.00791 9.19832 5.0073 9.19161 5.00669C9.10463 4.99845 9.01735 4.99235 8.93007 4.98777C8.90657 4.98655 8.88277 4.98594 8.85927 4.98472C8.78786 4.98197 8.71675 4.98014 8.64534 4.97953C8.63252 4.97953 8.61971 4.97862 8.60719 4.97862C8.58339 4.97862 8.55989 4.97953 8.53609 4.97984C8.5013 4.98014 8.4662 4.98045 8.43111 4.98167C8.38106 4.98289 8.33132 4.98533 8.28157 4.98808C8.25655 4.9893 8.23183 4.98991 8.2068 4.99143C8.23549 4.93131 8.26662 4.87211 8.29988 4.81352C9.05702 3.48144 10.7498 3.00751 12.0868 3.74725ZM8.86446 22.241C8.25167 21.8928 7.83541 21.157 7.85188 20.4518C7.86104 20.0572 7.57509 19.7178 7.18477 19.6604C6.8503 19.611 6.53047 19.5005 6.23354 19.3321C5.14742 18.715 4.6454 17.4608 4.92952 16.3036C4.93532 16.3078 4.94142 16.3115 4.94692 16.3158C5.0107 16.3612 5.07601 16.4049 5.14162 16.4485C5.16847 16.4662 5.19441 16.4848 5.22158 16.5022C5.31465 16.562 5.40987 16.6197 5.50722 16.6752C5.5884 16.721 5.67018 16.7644 5.75228 16.8065C5.77028 16.8156 5.78829 16.8248 5.8066 16.8339C5.97841 16.9197 6.15297 16.9969 6.32906 17.0656C6.33486 17.068 6.34065 17.0701 6.34645 17.0723C7.07582 17.354 7.83754 17.4919 8.59377 17.4916C8.62032 17.4916 8.64656 17.4901 8.67311 17.4898C8.69966 17.4894 8.72621 17.4885 8.75276 17.4876C8.8257 17.4858 8.89833 17.4833 8.97096 17.4791C9.00209 17.4769 9.03322 17.4745 9.06435 17.4721C9.13271 17.4669 9.20107 17.4614 9.26912 17.454C9.30422 17.4501 9.33901 17.4455 9.3741 17.4409C9.43849 17.433 9.50289 17.4248 9.56697 17.4147C9.60451 17.4086 9.64174 17.4019 9.67897 17.3952C9.74123 17.3842 9.80318 17.3732 9.86513 17.3604C9.90267 17.3527 9.9402 17.3436 9.97774 17.3353C10.0394 17.3213 10.101 17.3073 10.1624 17.2914C10.1721 17.2889 10.1819 17.2871 10.1914 17.2844L10.2121 22.4766C9.75466 22.569 9.30269 22.4903 8.86446 22.241ZM16.0132 20.6931L15.1367 16.6179C15.9448 16.7717 16.781 16.7097 17.562 16.4336C17.6532 16.7482 17.7728 17.0521 17.9163 17.3436L16.0132 20.6931ZM24.5963 20.6046C24.9481 20.929 25.3372 21.2132 25.7599 21.4533C25.8734 21.5174 25.9885 21.5784 26.1054 21.6358C25.629 22.4958 25.4172 23.433 25.4416 24.3528L21.3208 26.3693L24.5963 20.6046ZM29.5777 30.2762C28.7622 31.7111 26.9312 32.2149 25.4968 31.3998C24.8963 31.0586 24.4373 30.5233 24.1889 29.8895L27.0502 28.0441C27.0557 28.0493 27.0618 28.0542 27.0673 28.0594C27.135 28.125 27.2049 28.1885 27.2766 28.2507C27.3075 28.2773 27.3392 28.3029 27.3706 28.3289C27.4191 28.3688 27.4683 28.4085 27.5186 28.4473C27.5516 28.4726 27.5849 28.4976 27.6181 28.522C27.6727 28.5617 27.7283 28.6005 27.7847 28.6386C27.8137 28.6584 27.8427 28.6786 27.8723 28.6975C27.959 28.7537 28.0469 28.808 28.1378 28.8599C28.2004 28.8953 28.2633 28.9288 28.3267 28.9615C28.3423 28.9697 28.3582 28.9777 28.374 28.9853C28.4268 29.0121 28.4799 29.0378 28.533 29.0625C28.5446 29.0677 28.5565 29.0735 28.5681 29.0787C28.7064 29.1415 28.8458 29.198 28.9865 29.248C28.9877 29.2483 28.989 29.2489 28.9899 29.2493C29.0625 29.2752 29.1358 29.2993 29.209 29.3216C29.209 29.3219 29.2093 29.3219 29.2096 29.3219C29.3543 29.3664 29.4998 29.4043 29.6463 29.4357C29.6582 29.4385 29.6698 29.4409 29.6817 29.4433C29.7391 29.4552 29.7962 29.4662 29.8538 29.4763C29.8654 29.4781 29.8773 29.4809 29.8892 29.483C29.8239 29.7592 29.7193 30.0265 29.5777 30.2762ZM34.0552 26.0846C33.3499 27.3261 32.0413 28.0148 30.7053 27.9926C30.6848 27.9923 30.6647 27.991 30.6442 27.9904C30.5704 27.988 30.4965 27.9831 30.4224 27.9764C30.3848 27.973 30.347 27.9697 30.3095 27.9648C30.2786 27.9611 30.2478 27.9565 30.217 27.9517C30.1715 27.9449 30.1261 27.9376 30.0809 27.9291C30.0568 27.9245 30.0324 27.9202 30.0083 27.915C29.942 27.9013 29.8758 27.8861 29.8102 27.869C29.8065 27.868 29.8032 27.8671 29.7998 27.8662C29.7257 27.8464 29.6527 27.8241 29.5801 27.8C29.5688 27.7963 29.5575 27.7921 29.5465 27.7881C29.4873 27.7679 29.4287 27.746 29.3707 27.7228C29.3527 27.7155 29.335 27.7081 29.317 27.7005C29.2645 27.6785 29.2124 27.655 29.1605 27.6306C29.1431 27.6221 29.1254 27.6144 29.108 27.6056C29.0408 27.5726 28.9746 27.5385 28.9096 27.5012C28.8538 27.4698 28.7992 27.4365 28.7457 27.4027C28.736 27.3966 28.7271 27.3898 28.7177 27.3837C28.6734 27.3551 28.6292 27.3261 28.5864 27.2955C28.58 27.291 28.5736 27.2858 28.5672 27.2812C28.5217 27.2485 28.4769 27.2153 28.4335 27.1808C28.4305 27.1787 28.4278 27.1762 28.4247 27.1738C28.1812 26.9803 27.9663 26.7603 27.7823 26.5204C27.7524 26.4813 27.7237 26.4411 27.695 26.4008C27.6624 26.3544 27.6309 26.3074 27.6004 26.2598C27.5864 26.2375 27.572 26.2152 27.5583 26.193C27.5342 26.1536 27.511 26.1142 27.4884 26.0742C27.4783 26.0562 27.4689 26.0382 27.4594 26.0202C27.3837 25.8808 27.3169 25.737 27.2598 25.5896C27.2537 25.5744 27.2479 25.5588 27.2421 25.5436C27.1845 25.3891 27.1369 25.2314 27.0996 25.0708C27.0972 25.0595 27.0941 25.0486 27.0917 25.037C27.0804 24.9869 27.0706 24.9363 27.0615 24.8856C27.0584 24.8691 27.0557 24.8526 27.0529 24.8362C26.9159 24.0119 27.049 23.1373 27.4927 22.356C27.6099 22.15 27.7466 21.9544 27.8995 21.7744C28.0704 21.5733 28.1281 21.2995 28.0527 21.0465C27.9776 20.7935 27.7799 20.5955 27.5272 20.5201C27.1826 20.4176 26.8479 20.2744 26.532 20.0947C25.9909 19.7877 25.5237 19.3861 25.1428 18.9012C24.9915 18.7089 24.7635 18.6027 24.5285 18.6027C24.4397 18.6027 24.3506 18.6177 24.2639 18.6488C24.1989 18.6723 24.1333 18.6937 24.0677 18.7135L23.7717 18.7901C23.7534 18.7941 23.7348 18.798 23.7164 18.802L23.3148 18.8639C23.1534 18.8804 22.992 18.8877 22.8305 18.8847L22.749 18.8829C22.7173 18.8813 22.6859 18.8792 22.6541 18.8771L22.1356 18.8118C22.0731 18.7992 22.0105 18.7852 21.9486 18.77L21.9208 18.7632C21.8842 18.7538 21.8479 18.7431 21.8115 18.7327L21.4765 18.6213C21.4581 18.6143 21.4398 18.6067 21.4212 18.5994L20.9961 18.3998C20.9738 18.3876 20.9509 18.3766 20.929 18.3641C20.8731 18.332 20.8188 18.2982 20.7648 18.2637L20.6738 18.2045C20.6409 18.1825 20.6085 18.1596 20.5765 18.1364L20.3372 17.9527C20.3128 17.9323 20.2896 17.9106 20.2655 17.8895L20.1004 17.736C20.072 17.7083 20.044 17.6799 20.0168 17.6512L19.7836 17.3854C19.762 17.3582 19.7409 17.3308 19.7202 17.3036L19.5014 16.9844C19.176 16.4567 18.9716 15.854 18.9179 15.2171C18.8947 14.9434 18.7293 14.7017 18.4827 14.5809C18.2358 14.4603 17.9434 14.4783 17.713 14.6282C16.7288 15.269 15.4834 15.3072 14.4632 14.7276C14.13 14.5381 13.8385 14.2937 13.5968 14.001C13.4821 13.8619 13.324 13.7679 13.151 13.7325C13.1427 13.7309 13.1345 13.7303 13.1265 13.7288C13.1055 13.7255 13.0847 13.7215 13.0634 13.7197C13.0432 13.7178 13.0228 13.7181 13.0026 13.7178C12.9929 13.7178 12.9837 13.7169 12.974 13.7169H12.9736C12.9544 13.7175 12.9355 13.72 12.9163 13.7218C12.9059 13.723 12.8952 13.723 12.8848 13.7245C12.8668 13.727 12.8491 13.7313 12.8314 13.7352C12.8201 13.7377 12.8089 13.7389 12.7979 13.7419C12.7808 13.7465 12.764 13.7526 12.7475 13.7581C12.7362 13.7618 12.7249 13.7645 12.7139 13.7688C12.6978 13.7749 12.6822 13.7828 12.6666 13.7902C12.6557 13.7953 12.6444 13.7993 12.6337 13.8051C12.619 13.8127 12.6047 13.8222 12.5903 13.8307C12.5797 13.8371 12.5687 13.8429 12.5583 13.85C12.5443 13.8594 12.5311 13.8704 12.5177 13.8808C12.508 13.8884 12.4976 13.8951 12.4881 13.9031C12.475 13.9141 12.4631 13.9266 12.4509 13.9388C12.442 13.9473 12.4326 13.9553 12.424 13.9641C12.4115 13.9778 12.3999 13.9925 12.3883 14.0068C12.3813 14.0157 12.3737 14.0236 12.367 14.0328C12.3667 14.0328 12.3667 14.0331 12.3667 14.0334H12.3664C12.3233 14.092 12.2788 14.149 12.2333 14.2049C12.2327 14.2055 12.2324 14.2058 12.2321 14.2064C12.2296 14.2092 12.2275 14.2119 12.2254 14.2146C12.1832 14.2659 12.1402 14.316 12.0966 14.3651C12.0944 14.3675 12.0929 14.3694 12.0908 14.3718C12.0859 14.377 12.0813 14.3822 12.0764 14.3874C12.0349 14.4332 11.9928 14.4783 11.9501 14.522L11.9409 14.5314C11.9336 14.5387 11.9269 14.5455 11.9196 14.5525C11.883 14.5894 11.8454 14.6257 11.8076 14.6614C11.8051 14.6636 11.8024 14.6663 11.7999 14.6684L11.7841 14.6834C11.774 14.6925 11.7648 14.7008 11.7551 14.7096C11.7236 14.7383 11.6916 14.7664 11.6596 14.7942C11.6544 14.7984 11.6495 14.803 11.6446 14.8073L11.6214 14.8268C11.6077 14.8384 11.5943 14.8494 11.5808 14.8601C11.5567 14.8802 11.5323 14.8998 11.5076 14.9193C11.4997 14.9257 11.4917 14.9318 11.4835 14.9385L11.2341 15.1195C11.218 15.1305 11.2015 15.1415 11.1844 15.1527L11.1499 15.1753C11.1307 15.1875 11.1115 15.2 11.0922 15.2119L11.0599 15.2321C11.0407 15.244 11.0208 15.2559 11.0028 15.2666L10.9708 15.2855C10.9705 15.2858 10.9702 15.2861 10.9699 15.2861C10.9519 15.2968 10.9335 15.3072 10.9137 15.3181C10.9131 15.3188 10.9125 15.3191 10.9116 15.3194C10.9097 15.3206 10.9079 15.3215 10.9061 15.3227L10.9033 15.3243C10.8145 15.3743 10.7227 15.4219 10.6305 15.4662C10.199 15.6731 9.74428 15.8101 9.28224 15.8781C9.27706 15.8788 9.27217 15.8794 9.26698 15.8803C8.99172 15.9199 8.71401 15.9352 8.43691 15.9257C8.43599 15.9257 8.43508 15.9257 8.43416 15.9257C8.15584 15.916 7.87844 15.8815 7.60561 15.8226C7.60225 15.822 7.59889 15.8214 7.59584 15.8205C7.50612 15.8009 7.4167 15.779 7.3279 15.7539C7.3279 15.7539 7.3279 15.7539 7.32759 15.7539C7.15425 15.7054 6.98335 15.6459 6.81551 15.5769C6.7972 15.5696 6.77919 15.5617 6.76119 15.554C6.69832 15.5272 6.63576 15.4988 6.5735 15.4692C6.55275 15.4591 6.5323 15.4497 6.51155 15.4393C6.43343 15.4005 6.35591 15.3603 6.27962 15.3166C6.21675 15.2812 6.15572 15.2437 6.09529 15.2058C6.07851 15.1952 6.06172 15.1842 6.04494 15.1735C5.99672 15.1421 5.94881 15.11 5.90181 15.0771C5.8896 15.0685 5.8774 15.0603 5.86519 15.0517C5.80751 15.0105 5.75106 14.9681 5.69582 14.9248C5.68483 14.9159 5.67385 14.9068 5.66286 14.8979C5.61647 14.8607 5.5707 14.8229 5.52584 14.7841C5.51424 14.774 5.50264 14.764 5.49105 14.7539C3.86202 13.3156 3.40242 10.8809 4.51753 8.91808C5.7123 6.81575 8.29683 5.98843 10.4663 6.93172C10.474 6.93538 10.4822 6.93812 10.4898 6.94179C10.5484 6.96742 10.6064 6.9955 10.6641 7.02388C10.6781 7.03059 10.6922 7.0367 10.7062 7.04371C10.7733 7.07759 10.8399 7.11329 10.9061 7.15083C10.9094 7.15266 10.9128 7.15419 10.9162 7.15632C10.961 7.18165 11.005 7.2082 11.0486 7.23475C11.0498 7.23567 11.0513 7.23597 11.0526 7.23689C11.0776 7.25184 11.1032 7.26588 11.1301 7.27809C11.319 7.36506 12.2766 7.87744 12.5757 9.44359C12.6474 9.81773 12.9749 10.0783 13.3423 10.0783C13.3908 10.0783 13.4403 10.0738 13.4897 10.0643C13.9136 9.98313 14.1916 9.5742 14.1104 9.15032C13.8004 7.52772 12.9611 6.64211 12.3505 6.19686C12.4191 5.98965 12.5076 5.78854 12.6169 5.59598C12.6489 5.53952 12.6831 5.48459 12.7182 5.43027C12.7258 5.41837 12.7341 5.40677 12.7417 5.39517C12.7719 5.3497 12.8031 5.30515 12.8354 5.26151C12.8412 5.25358 12.8473 5.24534 12.8534 5.2371C13.1009 4.90904 13.4073 4.62797 13.7561 4.41283C13.757 4.41222 13.758 4.4113 13.7592 4.41069C14.0241 4.24773 14.3131 4.12108 14.6213 4.03624C15.4758 3.80096 16.3709 3.91234 17.1414 4.35027C17.5199 4.56511 17.8467 4.84648 18.1128 5.18583C18.2788 5.39762 18.5422 5.5087 18.8095 5.48062C19.0769 5.45255 19.3109 5.28898 19.4293 5.04728C19.4892 4.92521 19.5481 4.81291 19.6097 4.70457C20.4285 3.26385 21.7591 2.2281 23.3566 1.78835C24.9539 1.34859 26.6272 1.55703 28.0679 2.3755C29.7962 3.35754 30.8774 5.03995 31.1456 6.86671C31.1466 6.89418 31.1484 6.92165 31.1521 6.94911C31.2464 7.65375 31.2198 8.35962 31.0764 9.04259C31.0761 9.04381 31.0758 9.04534 31.0755 9.04656C31.073 9.05846 31.07 9.07006 31.0675 9.08165C31.0657 9.08867 31.0632 9.09508 31.0617 9.1021C30.9958 9.40269 30.9073 9.69719 30.7981 9.98313C30.7916 9.99992 30.7846 10.0164 30.7782 10.0332C30.7681 10.0591 30.7572 10.0848 30.7468 10.1104C30.7273 10.1577 30.7077 10.2047 30.6873 10.2517C30.6812 10.2654 30.6751 10.2791 30.669 10.2929C30.6607 10.3115 30.6522 10.3304 30.6436 10.349C30.611 10.4204 30.5771 10.4912 30.5414 10.562C30.4953 10.6536 30.4477 10.7442 30.3971 10.8336C29.4754 12.4553 27.8925 13.5668 26.0541 13.8826C25.629 13.9559 25.3433 14.3596 25.4166 14.785C25.4819 15.1653 25.8121 15.4338 26.1856 15.4338C26.2296 15.4338 26.2741 15.4301 26.3187 15.4225C28.4674 15.0533 30.3372 13.8158 31.5146 12.0009C31.5424 12.0192 31.5701 12.0375 31.5973 12.0565C31.612 12.0665 31.6272 12.0766 31.6419 12.087C31.695 12.1248 31.7468 12.1636 31.7981 12.2033C31.8186 12.2188 31.8381 12.235 31.8582 12.2509C31.8915 12.2777 31.9248 12.3049 31.9574 12.3323C31.9791 12.3507 32.0007 12.369 32.0221 12.3876C32.0676 12.4273 32.1124 12.4678 32.1561 12.5093C32.1765 12.5286 32.1964 12.5487 32.2165 12.5682C32.2443 12.5957 32.2724 12.6235 32.2995 12.6516C32.3209 12.6735 32.3419 12.6958 32.363 12.7181C32.3941 12.7513 32.4246 12.7852 32.4549 12.8197C32.4753 12.8429 32.4957 12.8664 32.5159 12.8902C32.5501 12.9305 32.5836 12.9711 32.6163 13.0126C32.6303 13.0306 32.6444 13.0489 32.6584 13.0669C32.6935 13.1127 32.728 13.1591 32.7612 13.2064C32.7664 13.2137 32.7722 13.221 32.7774 13.2283C32.8198 13.2888 32.8607 13.3501 32.9001 13.4127C32.9019 13.4154 32.9035 13.4181 32.9053 13.4212C33.151 13.8115 33.3408 14.2403 33.4665 14.6974C33.5285 14.9223 33.5733 15.1491 33.602 15.3761C33.6035 15.3902 33.6051 15.4042 33.6069 15.4182C33.6124 15.4674 33.617 15.5165 33.6212 15.5659C33.6237 15.5949 33.6264 15.6242 33.6283 15.6535C33.6289 15.6624 33.6292 15.6712 33.6298 15.6801C33.6356 15.7799 33.6386 15.8806 33.638 15.9816V15.9898C33.6377 16.0445 33.6365 16.0991 33.6344 16.154C33.6341 16.1552 33.6344 16.1565 33.6344 16.1577C33.6328 16.1952 33.631 16.2324 33.6289 16.2697C33.6286 16.2721 33.6279 16.2743 33.6279 16.2764C33.6106 16.5385 33.5718 16.7958 33.5126 17.0476C33.5068 17.072 33.5004 17.0961 33.4943 17.1205C33.4805 17.1748 33.4659 17.2291 33.4503 17.2832C33.4406 17.3164 33.4305 17.3494 33.4201 17.3823C33.4058 17.4278 33.3908 17.4727 33.3753 17.5178C33.3627 17.5535 33.3499 17.5892 33.3365 17.6249C33.3203 17.6683 33.3029 17.7113 33.2852 17.7543C33.2709 17.7891 33.2572 17.8236 33.2419 17.8581C33.2211 17.9057 33.1986 17.9533 33.176 18.0006C33.1626 18.029 33.1497 18.0574 33.1357 18.0851C33.0979 18.1608 33.0585 18.2356 33.0164 18.3094C32.8299 18.6375 32.6074 18.9402 32.352 19.2128C32.2669 19.3037 32.1784 19.3913 32.0862 19.4755C31.8912 19.6531 31.799 19.9177 31.8414 20.178C31.8839 20.4386 32.0551 20.6602 32.2965 20.767C32.413 20.8186 32.5281 20.8766 32.6383 20.9394C32.6917 20.9696 32.7442 21.0014 32.7957 21.0337C32.8241 21.0517 32.8516 21.0709 32.8794 21.0896C32.9016 21.1045 32.9242 21.1189 32.9459 21.1341C32.9831 21.1601 33.0188 21.1872 33.0548 21.2141C33.0664 21.2229 33.0783 21.2315 33.0899 21.2403C33.1308 21.2721 33.1711 21.305 33.2105 21.3383C33.216 21.3429 33.2218 21.3474 33.2273 21.352C33.2703 21.3886 33.3121 21.4262 33.353 21.4643C33.3551 21.4661 33.357 21.4677 33.3588 21.4695C33.5309 21.6309 33.6872 21.8079 33.8254 21.9984C33.8257 21.9987 33.826 21.999 33.8263 21.9993C33.8599 22.0454 33.8922 22.0924 33.9237 22.14C33.9252 22.1424 33.927 22.1448 33.9285 22.1473C33.9585 22.1928 33.9871 22.2388 34.0149 22.2858C34.018 22.291 34.0213 22.2962 34.0244 22.3017C34.0503 22.3457 34.0753 22.3905 34.0994 22.4357C34.104 22.4445 34.1089 22.4534 34.1138 22.4625C34.1358 22.5043 34.1568 22.5471 34.1773 22.5898C34.1837 22.6029 34.1898 22.616 34.1959 22.6292C34.2142 22.6685 34.2316 22.7085 34.2487 22.7488C34.256 22.7662 34.2633 22.7839 34.2703 22.8016C34.2853 22.8382 34.2996 22.8751 34.3134 22.9124C34.3213 22.9343 34.3292 22.9563 34.3369 22.9783C34.3488 23.0128 34.3604 23.0469 34.3711 23.0817C34.3854 23.1269 34.3997 23.1724 34.4126 23.2184C34.6799 24.1901 34.5532 25.2082 34.0552 26.0846ZM35.7138 21.189C35.6302 21.3364 35.5338 21.4753 35.4267 21.6047C35.1389 21.0911 34.7687 20.6303 34.3277 20.2384C34.3204 20.232 34.3131 20.2256 34.3057 20.2192C34.2423 20.1634 34.1776 20.109 34.111 20.0563C34.1007 20.0477 34.0903 20.0392 34.0796 20.0309C34.0054 19.9726 33.9301 19.9153 33.8526 19.8609C33.8764 19.8304 33.8989 19.799 33.9224 19.7682C33.9929 19.6745 34.0619 19.5793 34.1275 19.4816C34.2145 19.3516 34.2972 19.2182 34.3747 19.0812C34.4217 18.9988 34.4657 18.9155 34.5087 18.8319C34.5185 18.8127 34.5282 18.7934 34.5377 18.7742C34.6225 18.6049 34.6991 18.4327 34.7678 18.2582C34.7748 18.2402 34.7815 18.2222 34.7885 18.2042C34.8197 18.1227 34.8493 18.0409 34.8767 17.9588C34.8795 17.9512 34.8822 17.9438 34.8847 17.9365C34.9118 17.8541 34.9368 17.7714 34.9603 17.6881C34.9701 17.6545 34.979 17.621 34.9881 17.5874C34.993 17.5688 34.9985 17.5502 35.0034 17.5313C36.0913 18.3928 36.42 19.9461 35.7138 21.189Z" fill="white"/>
<path d="M23.8614 13.8664L23.8525 13.8649C23.4289 13.7831 23.0194 14.0608 22.9379 14.4844C22.8564 14.9083 23.1338 15.3175 23.5574 15.399C23.5586 15.3993 23.5654 15.4005 23.5672 15.4008C23.6169 15.4103 23.6664 15.4148 23.7149 15.4148C24.082 15.4148 24.4092 15.1548 24.4812 14.7813C24.5627 14.3574 24.2853 13.9479 23.8614 13.8664Z" fill="white"/>
<path d="M13.1061 28.1704C13.3781 28.1704 13.642 28.0285 13.7861 27.7752L13.7977 27.7551C14.0107 27.38 13.8798 26.903 13.5047 26.6897C13.1296 26.4767 12.6527 26.6079 12.4393 26.9827L12.4277 27.0031C12.2147 27.3782 12.346 27.8552 12.721 28.0682C12.8428 28.1377 12.9752 28.1704 13.1061 28.1704Z" fill="white"/>
</g>
<defs>
<clipPath id="clip0_131_32691">
<rect width="40" height="40" fill="white"/>
</clipPath>
</defs>
</svg>
