<svg width="40" height="41" viewBox="0 0 40 41" fill="none" xmlns="http://www.w3.org/2000/svg">
<g clip-path="url(#clip0_131_32696)">
<path d="M17.3084 27.5073C17.0027 27.2023 16.5077 27.2023 16.2028 27.5073C15.8971 27.813 15.8971 28.308 16.2028 28.6137C16.5077 28.9186 17.0027 28.9186 17.3084 28.6137C17.6133 28.308 17.6133 27.813 17.3084 27.5073Z" fill="white"/>
<path d="M37.1128 14.093C36.0068 13.6665 34.6383 13.3452 33.206 13.1653C34.3142 11.8994 35.1883 10.5743 35.715 9.34589C36.4761 7.5701 36.4371 6.13385 35.6052 5.3019C34.7732 4.4694 33.3368 4.43002 31.5608 5.19112C30.3321 5.71768 29.0069 6.59182 27.7405 7.70026C27.5607 6.26917 27.2392 4.90268 26.8129 3.7987C25.8931 1.41745 24.7723 0.917603 23.9939 0.917603C23.1622 0.917603 21.9754 1.47127 21.045 4.10909C20.2804 6.27667 19.8942 9.33526 20.178 12.2275C17.9325 11.8842 15.8786 12.6656 14.304 14.4918C8.88745 20.7744 4.7469 26.5021 2.33018 31.0557C-0.0965354 35.6282 -0.630989 38.6854 0.741824 40.1427C0.752449 40.1541 0.763465 40.165 0.774793 40.1757C2.78393 42.0682 7.40722 39.8903 9.86214 38.5874C14.416 36.1705 20.1435 32.03 26.4257 26.6135C28.2553 25.0364 29.036 22.9785 28.6885 20.7289C31.5882 21.0128 34.6459 20.621 36.8025 19.8617C39.4453 18.9314 40 17.7445 40 16.9126C40 16.1342 39.4991 15.013 37.1128 14.093ZM32.1768 6.62846C33.2584 6.16487 34.1699 6.07815 34.4991 6.4076C34.8282 6.73667 34.7412 7.64815 34.2775 8.72979C32.9882 11.7378 29.3841 15.2008 26.5643 16.2607C26.2861 15.9195 25.9835 15.5846 25.6592 15.2609C25.3306 14.9317 24.9908 14.6248 24.645 14.3433C25.7042 11.5259 29.1638 7.91971 32.1768 6.62846ZM22.4584 4.82713C22.932 3.38596 23.5261 2.48143 23.9939 2.48143C24.213 2.48143 24.7793 2.8744 25.3539 4.36206C25.8523 5.65268 26.1934 7.35987 26.3021 9.09049C24.9647 10.5159 23.9252 12.0349 23.3332 13.4147C22.8297 13.1102 22.3184 12.8589 21.8031 12.6623C21.4023 9.67674 21.8213 6.76627 22.4584 4.82713ZM25.4045 25.4292C19.2093 30.7707 13.5814 34.843 9.12901 37.206C6.14964 38.7873 4.1494 39.3565 2.96987 39.3564C2.44136 39.3564 2.07737 39.2421 1.86432 39.0532C1.25401 38.3647 1.42182 36.1031 3.71159 31.7889C6.07448 27.3367 10.1468 21.7086 15.4885 15.5131C18.067 12.5224 21.7724 13.581 24.5535 16.3667C27.3623 19.1707 28.3738 22.8696 25.4045 25.4292ZM36.2832 18.3867C34.18 19.1272 31.0982 19.4842 28.2513 19.1038C28.0536 18.5879 27.8009 18.0759 27.4948 17.5717C28.8746 16.9794 30.3929 15.94 31.8164 14.6037C33.5479 14.7125 35.2571 15.0536 36.5503 15.5523C38.0421 16.1274 38.4363 16.6938 38.4363 16.9128C38.4362 17.1603 37.9862 17.7871 36.2832 18.3867Z" fill="white"/>
<path d="M21.8656 19.0402L19.6542 16.8289C19.3489 16.5237 18.8538 16.5236 18.5485 16.8289C18.2432 17.1342 18.2431 17.6293 18.5485 17.9347L20.7598 20.1461C21.0652 20.4513 21.5603 20.4514 21.8656 20.1461C22.1709 19.8407 22.171 19.3456 21.8656 19.0402Z" fill="white"/>
<path d="M20.7599 24.5693L18.5486 22.358C18.2433 22.0527 17.7481 22.0527 17.4428 22.358C17.1374 22.6633 17.1374 23.1584 17.4428 23.4638L19.6541 25.6751C19.9595 25.9805 20.4545 25.9805 20.7599 25.6751C21.0652 25.3698 21.0652 24.8748 20.7599 24.5693Z" fill="white"/>
<path d="M15.2309 25.675L13.0196 23.4637C12.7143 23.1584 12.2191 23.1584 11.9137 23.4637C11.6084 23.769 11.6084 24.2641 11.9137 24.5695L14.125 26.7808C14.4304 27.0861 14.9255 27.0861 15.2309 26.7808C15.5362 26.4755 15.5362 25.9804 15.2309 25.675Z" fill="white"/>
<path d="M14.1252 31.204L11.9131 28.9927C11.6078 28.6874 11.1126 28.6875 10.8073 28.9928C10.502 29.2982 10.5022 29.7934 10.8075 30.0987L13.0196 32.31C13.3249 32.6153 13.8201 32.6153 14.1254 32.3099C14.4307 32.0045 14.4305 31.5093 14.1252 31.204Z" fill="white"/>
<path d="M9.70201 33.4161L7.4899 31.204C7.18459 30.8988 6.68943 30.8988 6.38404 31.204C6.07873 31.5093 6.07873 32.0045 6.38404 32.3099L8.59615 34.522C8.90154 34.8273 9.39662 34.8273 9.70201 34.522C10.0073 34.2167 10.0073 33.7215 9.70201 33.4161Z" fill="white"/>
</g>
<defs>
<clipPath id="clip0_131_32696">
<rect width="40" height="40" fill="white" transform="translate(0 0.917236)"/>
</clipPath>
</defs>
</svg>
