<svg width="50" height="50" viewBox="0 0 50 50" fill="none" xmlns="http://www.w3.org/2000/svg">
<g clip-path="url(#clip0_133_97785)">
<path d="M42.6777 7.32227C37.9558 2.60049 31.6777 0 25 0C18.3223 0 12.0442 2.60049 7.32227 7.32227C2.60049 12.0442 0 18.3223 0 25C0 31.6777 2.60049 37.9558 7.32227 42.6777C12.0442 47.3995 18.3223 50 25 50C29.5716 50 34.0446 48.7542 37.9356 46.3972C38.8583 45.8383 39.1532 44.6373 38.5943 43.7147C38.0355 42.792 36.8344 42.4972 35.9119 43.0561C32.6312 45.0434 28.8579 46.0938 25 46.0938C13.3688 46.0938 3.90625 36.6312 3.90625 25C3.90625 13.3688 13.3688 3.90625 25 3.90625C36.6312 3.90625 46.0938 13.3688 46.0938 25C46.0938 29.1591 44.8569 33.2074 42.5169 36.7075C41.9174 37.6042 42.1583 38.8172 43.0551 39.4167C43.9519 40.0162 45.1647 39.7752 45.7643 38.8785C48.5353 34.7338 50 29.9347 50 25C50 18.3223 47.3995 12.0442 42.6777 7.32227Z" fill="#86BC42"/>
<path d="M25.0001 7.42188C23.9214 7.42188 23.047 8.29629 23.047 9.375V24.191L15.8851 31.3529C15.1223 32.1156 15.1223 33.3522 15.8851 34.115C16.2664 34.4964 16.7662 34.6871 17.2661 34.6871C17.766 34.6871 18.2658 34.4964 18.6472 34.115L26.3812 26.3811C26.7475 26.0148 26.9532 25.518 26.9532 25V9.375C26.9532 8.29629 26.0788 7.42188 25.0001 7.42188Z" fill="#86BC42"/>
</g>
<defs>
<clipPath id="clip0_133_97785">
<rect width="50" height="50" fill="white"/>
</clipPath>
</defs>
</svg>
