<svg width="12" height="12" viewBox="0 0 12 12" fill="none" xmlns="http://www.w3.org/2000/svg">
<path d="M5.6875 3.12231C5.16276 3.12231 4.67188 3.25773 4.21484 3.52856C3.77474 3.78247 3.41927 4.13794 3.14844 4.59497C2.89453 5.03507 2.76758 5.5175 2.76758 6.04224C2.76758 6.56698 2.89453 7.05786 3.14844 7.51489C3.41927 7.955 3.77474 8.31047 4.21484 8.5813C4.67188 8.83521 5.16276 8.96216 5.6875 8.96216C6.21224 8.96216 6.69466 8.83521 7.13477 8.5813C7.5918 8.31047 7.94727 7.955 8.20117 7.51489C8.47201 7.05786 8.60742 6.56698 8.60742 6.04224C8.60742 5.5175 8.47201 5.03507 8.20117 4.59497C7.94727 4.13794 7.5918 3.78247 7.13477 3.52856C6.69466 3.25773 6.21224 3.12231 5.6875 3.12231ZM5.6875 7.94653C5.16276 7.94653 4.71419 7.76034 4.3418 7.38794C3.9694 7.01554 3.7832 6.56698 3.7832 6.04224C3.7832 5.5175 3.9694 5.06893 4.3418 4.69653C4.71419 4.32414 5.16276 4.13794 5.6875 4.13794C6.21224 4.13794 6.66081 4.32414 7.0332 4.69653C7.4056 5.06893 7.5918 5.5175 7.5918 6.04224C7.5918 6.56698 7.4056 7.01554 7.0332 7.38794C6.66081 7.76034 6.21224 7.94653 5.6875 7.94653ZM9.41992 2.99536C9.40299 3.18156 9.32682 3.34237 9.19141 3.47778C9.07292 3.6132 8.92057 3.68091 8.73438 3.68091C8.54818 3.68091 8.38737 3.6132 8.25195 3.47778C8.11654 3.34237 8.04883 3.18156 8.04883 2.99536C8.04883 2.80916 8.11654 2.64836 8.25195 2.51294C8.38737 2.37752 8.54818 2.30981 8.73438 2.30981C8.92057 2.30981 9.08138 2.37752 9.2168 2.51294C9.35221 2.64836 9.41992 2.80916 9.41992 2.99536ZM11.3496 3.68091C11.3158 3.19002 11.2396 2.76685 11.1211 2.41138C10.9688 1.9882 10.7318 1.62427 10.4102 1.31958C10.1055 0.997965 9.74154 0.760986 9.31836 0.608643C8.96289 0.490153 8.53971 0.422445 8.04883 0.405518C7.57487 0.371663 6.78776 0.354736 5.6875 0.354736C4.58724 0.354736 3.79167 0.371663 3.30078 0.405518C2.82682 0.422445 2.41211 0.490153 2.05664 0.608643C1.63346 0.760986 1.26107 0.997965 0.939453 1.31958C0.634766 1.62427 0.40625 1.9882 0.253906 2.41138C0.135417 2.76685 0.0592448 3.19002 0.0253906 3.68091C0.00846354 4.15487 0 4.94198 0 6.04224C0 7.1425 0.00846354 7.93807 0.0253906 8.42896C0.0592448 8.90291 0.135417 9.31763 0.253906 9.6731C0.40625 10.0963 0.634766 10.4687 0.939453 10.7903C1.26107 11.095 1.63346 11.315 2.05664 11.4504C2.41211 11.5859 2.82682 11.662 3.30078 11.679C3.79167 11.7128 4.58724 11.7297 5.6875 11.7297C6.78776 11.7297 7.57487 11.7128 8.04883 11.679C8.53971 11.662 8.96289 11.5943 9.31836 11.4758C9.74154 11.3235 10.1055 11.095 10.4102 10.7903C10.7318 10.4687 10.9688 10.0963 11.1211 9.6731C11.2396 9.31763 11.3073 8.90291 11.3242 8.42896C11.3581 7.93807 11.375 7.1425 11.375 6.04224C11.375 4.94198 11.3665 4.15487 11.3496 3.68091ZM10.1309 9.3938C9.92773 9.90161 9.5638 10.2655 9.03906 10.4856C8.76823 10.5872 8.3112 10.6549 7.66797 10.6887C7.3125 10.7056 6.78776 10.7141 6.09375 10.7141H5.28125C4.60417 10.7141 4.07943 10.7056 3.70703 10.6887C3.08073 10.6549 2.6237 10.5872 2.33594 10.4856C1.82812 10.2825 1.46419 9.91854 1.24414 9.3938C1.14258 9.10604 1.07487 8.64901 1.04102 8.02271C1.02409 7.65031 1.01562 7.12557 1.01562 6.44849V5.63599C1.01562 4.9589 1.02409 4.43416 1.04102 4.06177C1.07487 3.41854 1.14258 2.96151 1.24414 2.69067C1.44727 2.16593 1.8112 1.802 2.33594 1.59888C2.6237 1.49731 3.08073 1.42961 3.70703 1.39575C4.07943 1.37882 4.60417 1.37036 5.28125 1.37036H6.09375C6.77083 1.37036 7.29557 1.37882 7.66797 1.39575C8.3112 1.42961 8.76823 1.49731 9.03906 1.59888C9.5638 1.802 9.92773 2.16593 10.1309 2.69067C10.2324 2.96151 10.3001 3.41854 10.334 4.06177C10.3509 4.41724 10.3594 4.94198 10.3594 5.63599V6.44849C10.3594 7.12557 10.3509 7.65031 10.334 8.02271C10.3001 8.64901 10.2324 9.10604 10.1309 9.3938Z" fill="#4F4F4F"/>
</svg>
