<svg width="38" height="41" viewBox="0 0 38 41" fill="none" xmlns="http://www.w3.org/2000/svg">
<path d="M37.0661 29.0332L33.1182 28.3803C33.1143 28.3796 33.1106 28.3784 33.1067 28.3778C33.1028 28.3771 33.0989 28.3771 33.095 28.3764L26.7932 27.3341C26.9373 25.6948 26.8695 24.0085 26.5918 22.4132C26.5179 21.9882 26.1125 21.7029 25.6883 21.7775C25.2632 21.8514 24.9786 22.256 25.0526 22.681C25.3005 24.106 25.3655 25.6107 25.2465 27.0782L12.6165 24.9918C12.412 24.9578 12.2025 25.0068 12.0341 25.1276C11.8657 25.2483 11.7522 25.431 11.7184 25.6354C10.9338 30.3913 12.8144 34.9825 16.2622 37.8794C10.7112 38.2795 5.00504 33.3796 2.96606 28.0478C0.727857 22.1972 1.94356 15.7832 5.92247 12.4501C6.15294 12.257 6.25223 11.9487 6.17762 11.6575C5.86958 10.454 6.56559 9.19167 7.79708 8.72097C9.02919 8.24917 10.3905 8.72479 10.9635 9.82659C11.1022 10.0935 11.3848 10.2572 11.6827 10.247C15.7044 10.1141 19.8588 12.498 22.5299 16.4724C22.7706 16.8305 23.256 16.9258 23.6141 16.685C23.9722 16.4443 24.0674 15.9589 23.8268 15.6009C23.1851 14.6461 22.4587 13.7658 21.6655 12.9758C23.7096 11.5634 25.7631 9.09847 26.15 6.78495C26.2013 6.47823 26.0658 6.17034 25.805 6.00089C23.55 4.5362 19.54 4.55026 17.0804 5.45456C16.1043 3.57839 14.2128 1.55878 12.2948 0.99081C11.9965 0.902529 11.6747 0.999404 11.4747 1.23745C10.2615 2.68198 9.78379 5.11089 9.90254 7.13386C9.05919 6.89597 8.12661 6.9219 7.23895 7.26167C5.42864 7.95362 4.34739 9.74198 4.57161 11.5562C2.59028 13.3611 1.18669 15.9381 0.599732 18.866C-0.0344866 22.029 0.279264 25.3971 1.50692 28.6061C2.72754 31.798 5.21544 34.9149 8.16223 36.9437C10.5786 38.6074 13.1472 39.4653 15.6167 39.4653C16.4554 39.4653 17.2828 39.366 18.0887 39.166C19.4344 39.9516 20.9418 40.5103 22.5682 40.7792C23.2949 40.8993 24.0218 40.9586 24.744 40.9586C27.4714 40.9586 30.1251 40.1114 32.3865 38.491C35.2464 36.4417 37.1369 33.4019 37.7097 29.9312C37.7796 29.5057 37.4916 29.1037 37.0661 29.0332ZM17.3124 7.04339C19.1507 6.23464 22.5022 6.10878 24.4841 7.05042C23.9323 8.85456 22.1315 10.845 20.467 11.8949C19.7962 11.3464 19.0903 10.8573 18.3557 10.4385C17.3675 9.87503 16.3406 9.443 15.2997 9.14784C15.5535 8.48253 16.1089 7.57214 17.3124 7.04339ZM12.3578 2.68683C13.6591 3.31159 14.9832 4.80761 15.6951 6.17651C14.7816 6.83229 14.1028 7.75276 13.7561 8.81308C13.2007 8.72917 12.6449 8.68362 12.0921 8.67948C11.9465 8.47011 11.7818 8.2787 11.6022 8.10511C11.2587 6.51831 11.5086 4.10878 12.3578 2.68683ZM29.7502 33.4692L26.4488 28.8609L32.0416 29.786C31.6529 31.2168 30.862 32.4883 29.7502 33.4692ZM17.1332 27.3216L22.7268 28.2456L18.1173 31.548C17.3797 30.2611 17.04 28.8021 17.1332 27.3216ZM23.6365 29.516L22.7118 35.1096C21.2803 34.7216 20.0083 33.9307 19.0272 32.8183L23.6365 29.516ZM25.1782 29.7702L28.4801 34.3792C27.193 35.1171 25.7341 35.4571 24.2533 35.3642L25.1782 29.7702ZM31.4761 37.2209C28.9553 39.0271 25.8825 39.7432 22.8228 39.2377C16.7668 38.2367 12.5732 32.6889 13.1584 26.6651L15.5854 27.066C15.4122 29.2183 15.998 31.3412 17.27 33.1167C18.6946 35.1051 20.8082 36.4195 23.2211 36.8176C23.7267 36.9012 24.2325 36.9426 24.7349 36.9426C26.628 36.9425 28.47 36.3552 30.0406 35.2321C30.0431 35.2303 30.0457 35.2288 30.0482 35.227C30.0499 35.2258 30.0513 35.2244 30.053 35.2232C31.8249 33.9517 33.0605 32.1326 33.5893 30.0421L36.0152 30.4433C35.3756 33.1818 33.7841 35.5673 31.4761 37.2209Z" fill="white"/>
<path d="M24.4719 18.4004C24.086 18.5934 23.9296 19.0626 24.1225 19.4485L24.1247 19.453C24.2613 19.7263 24.5358 19.8833 24.8214 19.8833C24.9393 19.8833 25.0591 19.8566 25.1717 19.8002C25.5576 19.6073 25.7129 19.1358 25.52 18.7499C25.3271 18.3639 24.8576 18.2074 24.4719 18.4004Z" fill="white"/>
</svg>
