<svg width="50" height="50" viewBox="0 0 50 50" fill="none" xmlns="http://www.w3.org/2000/svg">
<path d="M25 0C14.6594 0 6.25 8.40938 6.25 18.75C6.25 31.7469 23.175 48.8219 23.8937 49.5438C24.2 49.8469 24.6 50 25 50C25.4 50 25.8 49.8469 26.1063 49.5438C26.825 48.8219 43.75 31.7469 43.75 18.75C43.75 8.40938 35.3406 0 25 0ZM25 28.125C19.8313 28.125 15.625 23.9188 15.625 18.75C15.625 13.5813 19.8313 9.375 25 9.375C30.1688 9.375 34.375 13.5813 34.375 18.75C34.375 23.9188 30.1688 28.125 25 28.125Z" fill="#86BC42"/>
</svg>
