<svg width="80" height="80" viewBox="0 0 80 80" fill="none" xmlns="http://www.w3.org/2000/svg">
<circle cx="40" cy="40" r="40" fill="#86BC42"/>
<g clip-path="url(#clip0_133_97776)">
<path d="M40.5002 39.7654C43.6639 39.7654 46.2378 37.1918 46.2378 34.0286C46.2378 30.8653 43.6639 28.2919 40.5002 28.2919C37.3366 28.2919 34.7627 30.8653 34.7627 34.0286C34.7627 37.1918 37.3366 39.7654 40.5002 39.7654ZM40.5002 30.3424C42.5331 30.3424 44.187 31.9961 44.187 34.0286C44.187 36.0612 42.5332 37.7149 40.5002 37.7149C38.4673 37.7149 36.8135 36.0612 36.8135 34.0286C36.8135 31.9961 38.4674 30.3424 40.5002 30.3424Z" fill="white"/>
<path d="M34.2529 44.3371C35.807 46.441 35.1826 45.6228 39.6592 52.014C40.066 52.5972 40.9312 52.6 41.3404 52.0149C45.8372 45.5933 45.2185 46.4067 46.7473 44.337C48.296 42.2403 49.8975 40.0722 50.7751 37.5316C52.0453 33.8538 51.4963 30.2148 49.2293 27.2849C49.2292 27.2849 49.2292 27.2848 49.2291 27.2848C47.1525 24.6018 43.8893 23 40.5001 23C37.1109 23 33.8477 24.6018 31.771 27.285C29.504 30.2149 28.955 33.8539 30.2252 37.5317C31.1027 40.0723 32.7042 42.2404 34.2529 44.3371ZM33.3929 28.5398C35.084 26.3549 37.7409 25.0505 40.5001 25.0505C43.2593 25.0505 45.9162 26.3549 47.6073 28.5398L47.6072 28.5397C49.4369 30.9044 49.8735 33.8601 48.8366 36.8623C48.0615 39.1064 46.5548 41.1462 45.0977 43.1188C43.9632 44.6547 44.3027 44.1849 40.5001 49.6358C36.7014 44.1904 37.0367 44.6542 35.9025 43.1188C34.4454 41.1462 32.9387 39.1064 32.1636 36.8623C31.1267 33.8601 31.5633 30.9044 33.3929 28.5398Z" fill="white"/>
<path d="M35.0951 48.7828C34.7927 48.3041 34.1594 48.1611 33.6806 48.4635L30.7651 50.3049C30.1291 50.7066 30.1285 51.6365 30.7651 52.0385L39.9526 57.8414C40.2871 58.0527 40.7134 58.0527 41.0478 57.8414L50.2353 52.0385C50.8714 51.6369 50.8719 50.707 50.2353 50.3049L47.3197 48.4635C46.8408 48.1611 46.2076 48.3041 45.9053 48.7828C45.6028 49.2615 45.7458 49.8947 46.2246 50.1971L47.7677 51.1717L40.5001 55.7619L33.2327 51.1717L34.7758 50.1971C35.2546 49.8948 35.3975 49.2616 35.0951 48.7828Z" fill="white"/>
</g>
<defs>
<clipPath id="clip0_133_97776">
<rect width="35" height="35" fill="white" transform="translate(23 23)"/>
</clipPath>
</defs>
</svg>
