<svg width="40" height="34" viewBox="0 0 40 34" fill="none" xmlns="http://www.w3.org/2000/svg">
<path d="M39.3544 12.366C39.9617 11.2827 40.1376 10.245 39.8767 9.27616C39.5326 7.99831 38.2615 6.33027 34.1677 5.61923C30.7711 1.3715 24.1031 0.771682 20.0126 4.49369C17.1897 2.0437 13.4537 1.34905 10.0172 2.65292C9.63818 2.23484 9.35574 1.72838 9.20496 1.16832C8.99588 0.40595 7.90632 0.406339 7.69732 1.16825C7.36228 2.41246 6.37752 3.39246 5.12727 3.72588C4.36127 3.93418 4.36166 5.0184 5.12735 5.22624C5.40924 5.30142 5.67755 5.40946 5.92799 5.54592C4.62389 7.09645 3.84509 8.99935 3.66395 11.097C3.5959 11.8847 3.61159 12.6848 3.71047 13.4952C-3.58753 19.3497 0.7758 23.6693 9.04536 23.8364C10.1512 25.0905 11.3931 26.3113 12.7257 27.4465C15.3292 29.6643 17.9777 31.2801 19.8105 31.7687C19.9428 31.8041 20.0822 31.8041 20.2145 31.7687C22.0472 31.2801 24.6958 29.6642 27.2993 27.4465C30.0575 25.097 32.4266 22.3808 34.0068 19.7617C34.3157 19.9361 34.6037 20.062 34.8518 20.1282C34.984 20.1635 35.1233 20.1635 35.2557 20.1282C36.3822 19.8279 38.3319 18.2959 39.3286 16.578C40.363 14.7948 40.0654 13.3144 39.3544 12.366ZM38.369 9.67823C38.5038 10.1788 38.4189 10.7458 38.1169 11.3691C37.5595 11.1143 36.9521 11.0303 36.3621 11.1124C36.2512 9.81633 35.9098 8.593 35.3672 7.48734C37.0516 7.98604 38.1202 8.75439 38.369 9.67823V9.67823ZM8.45114 3.1826C8.80397 3.68643 9.24468 4.12509 9.75103 4.47622C9.24468 4.82735 8.80397 5.26593 8.45114 5.76983C8.0983 5.26593 7.65751 4.82727 7.15125 4.47622C7.65751 4.12501 8.09823 3.68643 8.45114 3.1826V3.1826ZM1.65597 19.4679C1.34942 18.3293 2.21391 16.8133 4.04559 15.2325C4.6679 17.65 6.06441 20.0965 7.68873 22.1928C4.31382 21.8883 2.04564 20.9153 1.65597 19.4679ZM26.2843 26.2665C23.9846 28.2254 21.6097 29.7157 20.0125 30.2101C17.6692 29.5537 13.3826 26.2479 11.156 23.8319C11.6442 23.8155 12.1455 23.7891 12.6594 23.7521C13.0893 23.7213 13.4126 23.3493 13.3815 22.9215C13.3506 22.4937 12.977 22.17 12.5469 22.2029C11.576 22.2727 10.647 22.302 9.76984 22.2931C5.65461 17.6468 3.30847 10.9972 7.10466 6.56583C7.3739 6.9262 7.57736 7.33815 7.69739 7.78403C7.90671 8.54632 8.99619 8.54594 9.20504 7.78395C9.54 6.53973 10.5248 5.55974 11.775 5.22639C12.5192 5.02586 12.5476 3.98156 11.8191 3.73916C14.5391 3.1666 17.3552 4.00975 19.4606 6.10519C19.7514 6.40599 20.2737 6.40599 20.5644 6.10519C25.6712 0.893851 34.4521 4.26527 34.8229 11.4646C33.7321 10.8801 32.3948 10.9596 31.3692 11.7428C30.2837 12.5716 29.4778 14.3353 30.779 16.578C30.8765 16.746 30.9831 16.9122 31.0971 17.0757C28.3447 18.484 25.0948 19.7054 21.6424 20.626C20.8968 20.8248 20.1339 21.0109 19.3749 21.1792C18.9541 21.2725 18.6891 21.6876 18.7828 22.1063C18.8748 22.5279 19.3045 22.7896 19.7144 22.6954C24.0089 21.7561 28.6206 20.1453 32.1252 18.2945C32.3231 18.4928 32.5271 18.6809 32.7325 18.8558C31.2384 21.3665 28.9565 23.9904 26.2843 26.2665V26.2665ZM37.9767 15.8014C37.2083 17.1259 35.7772 18.2337 35.0537 18.5539C33.6468 17.9691 30.2513 14.6672 32.3193 12.9751C32.9646 12.4922 33.8657 12.5015 34.5018 13.1443C34.8066 13.4476 35.3006 13.4475 35.6056 13.1443C36.3225 12.4307 37.2395 12.5562 37.7881 12.9751C38.4005 13.4429 38.7718 14.431 37.9767 15.8014V15.8014Z" fill="white"/>
<path d="M37.0614 28.5801C35.8112 28.2468 34.8264 27.2668 34.4914 26.0225C34.2821 25.2602 33.1926 25.2606 32.9837 26.0226C32.6488 27.2668 31.664 28.2468 30.4138 28.5801C29.6477 28.7883 29.6481 29.8725 30.4137 30.0805C31.664 30.4139 32.6488 31.3939 32.9837 32.6381C33.1928 33.4005 34.2825 33.4001 34.4914 32.6382C34.8264 31.3939 35.8112 30.4139 37.0615 30.0805C37.8275 29.8722 37.8271 28.788 37.0614 28.5801V28.5801ZM33.7376 30.624C33.3847 30.1201 32.944 29.6814 32.4377 29.3303C32.944 28.9792 33.3848 28.5406 33.7376 28.0367C34.0904 28.5406 34.5312 28.9793 35.0375 29.3303C34.5312 29.6814 34.0904 30.1201 33.7376 30.624Z" fill="white"/>
<path d="M16.093 21.807H16.0924C15.6615 21.807 15.3123 22.1548 15.3123 22.5837C15.3535 23.6138 16.8324 23.6137 16.8734 22.5837C16.8734 22.1548 16.5239 21.807 16.093 21.807V21.807Z" fill="white"/>
</svg>
