<svg width="45" height="45" viewBox="0 0 45 45" fill="none" xmlns="http://www.w3.org/2000/svg">
<path d="M43.2422 25.6201C44.213 25.6201 45 24.8331 45 23.8623V12.3486C45 8.4716 41.8458 5.31738 37.9688 5.31738H7.03125C3.15422 5.31738 0 8.4716 0 12.3486V32.6514C0 36.5284 3.15422 39.6826 7.03125 39.6826H37.9688C41.8458 39.6826 45 36.5284 45 32.6514C45 31.6805 44.213 30.8936 43.2422 30.8936C42.2713 30.8936 41.4844 31.6805 41.4844 32.6514C41.4844 34.5899 39.9073 36.167 37.9688 36.167H7.03125C5.09273 36.167 3.51562 34.5899 3.51562 32.6514V12.7211L18.7871 22.2173C19.9322 22.9293 21.2161 23.2853 22.5 23.2853C23.7839 23.2853 25.0678 22.9293 26.2129 22.2173L41.4844 12.7211V23.8623C41.4844 24.8331 42.2713 25.6201 43.2422 25.6201ZM24.3564 19.2317C23.2114 19.9437 21.7886 19.9438 20.6436 19.2317L4.98243 9.49324C5.5597 9.07787 6.26739 8.83301 7.03125 8.83301H37.9688C38.7326 8.83301 39.4403 9.07796 40.0176 9.49333L24.3564 19.2317Z" fill="#86BC42"/>
</svg>
