<svg width="50" height="50" viewBox="0 0 50 50" fill="none" xmlns="http://www.w3.org/2000/svg">
<g clip-path="url(#clip0_133_97816)">
<path d="M33.5938 14.8438C33.5938 10.1052 29.7386 6.25 25 6.25C20.2614 6.25 16.4062 10.1052 16.4062 14.8438C16.4062 19.5823 20.2614 23.4375 25 23.4375C29.7386 23.4375 33.5938 19.5824 33.5938 14.8438ZM19.5312 14.8438C19.5312 11.8283 21.9846 9.375 25 9.375C28.0154 9.375 30.4688 11.8283 30.4688 14.8438C30.4688 17.8592 28.0154 20.3125 25 20.3125C21.9846 20.3125 19.5312 17.8593 19.5312 14.8438Z" fill="#86BC42"/>
<path d="M49.9247 47.9612L43.6747 28.43C43.5099 27.9149 43.0902 27.5215 42.5654 27.3904L36.1977 25.7988C38.2763 22.356 39.8428 18.5364 39.8428 14.8437C39.8428 6.65887 33.1839 0 24.9991 0C16.8142 0 10.1553 6.65887 10.1553 14.8437C10.1553 18.5364 11.7218 22.356 13.8004 25.7988L7.43269 27.3904C6.90788 27.5215 6.48826 27.9149 6.32341 28.43L0.0734246 47.9612C-0.0994266 48.5012 0.0338739 49.0924 0.421568 49.506C0.809263 49.9195 1.39061 50.0907 1.94051 49.9533L14.0346 46.9298L24.5698 49.9398C24.8503 50.02 25.1477 50.02 25.4283 49.9398L35.9634 46.9298L48.0575 49.9533C48.1831 49.9847 48.3102 50 48.4364 50C48.8628 50 49.2773 49.8251 49.5765 49.506C49.9643 49.0923 50.0975 48.5012 49.9247 47.9612ZM23.4366 37.4093V46.366L15.8321 44.1933L17.9367 31.5637C20.2612 34.3757 22.4512 36.4947 23.4366 37.4093ZM26.5616 37.4093C27.547 36.4947 29.7369 34.3757 32.0614 31.5637L34.166 44.1933L26.5616 46.366V37.4093ZM24.9991 3.12499C31.4608 3.12499 36.7178 8.38201 36.7178 14.8437C36.7178 22.579 28.0355 31.6452 24.9985 34.5794C21.9601 31.647 13.2803 22.5907 13.2803 14.8437C13.2803 8.38201 18.5374 3.12499 24.9991 3.12499ZM9.03464 30.2112L15.2531 28.6569L12.6888 44.045L3.90506 46.2409L9.03464 30.2112ZM37.3094 44.045L34.7451 28.6569L40.9636 30.2112L46.0932 46.241L37.3094 44.045Z" fill="#86BC42"/>
</g>
<defs>
<clipPath id="clip0_133_97816">
<rect width="50" height="50" fill="white"/>
</clipPath>
</defs>
</svg>
