<svg width="45" height="45" viewBox="0 0 45 45" fill="none" xmlns="http://www.w3.org/2000/svg">
<g clip-path="url(#clip0_133_97808)">
<path d="M44.9956 36.2595C44.9328 34.5188 44.2077 32.8944 42.954 31.6855C40.4991 29.3183 38.4423 27.9518 36.4811 27.3851C33.7789 26.6041 31.2758 27.3142 29.0419 29.4958C29.0386 29.4991 29.0353 29.5024 29.0319 29.5058L26.6554 31.8646C25.1701 31.0273 22.282 29.189 19.1617 26.0687L18.9304 25.8376C15.8096 22.7168 13.9713 19.8282 13.1349 18.3446L15.4939 15.968C15.4972 15.9646 15.5005 15.9613 15.5039 15.9579C17.6854 13.7242 18.3956 11.2213 17.6147 8.51873C17.0479 6.55762 15.6814 4.50081 13.3142 2.04593C12.1053 0.792351 10.481 0.0672531 8.74035 0.00449919C6.99862 -0.0583426 5.3273 0.547927 4.03109 1.71142L3.98064 1.75677C3.95726 1.77778 3.93441 1.79949 3.91208 1.82173C1.3317 4.40211 -0.0209366 8.0145 0.000245002 12.2685C0.036368 19.495 4.00806 27.7592 10.6244 34.3754C11.872 35.6231 13.2899 36.8577 14.8387 38.0453C15.6091 38.6359 16.7125 38.4904 17.3032 37.7199C17.894 36.9495 17.7483 35.8461 16.9778 35.2554C15.5509 34.1613 14.2497 33.0289 13.1103 31.8897C7.13406 25.9135 3.54733 18.572 3.51578 12.251C3.49952 8.97479 4.48504 6.24025 6.36616 4.33953L6.37961 4.3274C7.65728 3.18051 9.59166 3.2503 10.7836 4.48631C15.3345 9.20586 15.005 11.434 12.9941 13.4961L9.73563 16.779C9.22463 17.2938 9.08233 18.0697 9.37738 18.7324C9.46009 18.9182 11.4613 23.3402 16.4451 28.3241L16.6765 28.5552C21.6597 33.5385 26.0819 35.5396 26.2677 35.6223C26.9302 35.9175 27.7063 35.7751 28.221 35.2641L31.504 32.0056C33.5664 29.9945 35.7945 29.6652 40.5138 34.2161C41.7498 35.4079 41.8196 37.3424 40.673 38.6199L40.6605 38.6337C38.7753 40.4995 36.0699 41.4842 32.8293 41.4842C32.8026 41.4842 32.7759 41.4842 32.7491 41.484C30.1589 41.4711 27.1594 40.7611 24.0752 39.4307C23.184 39.0461 22.1495 39.4571 21.765 40.3486C21.3805 41.2401 21.7914 42.2743 22.6829 42.6589C26.2479 44.1966 29.6287 44.9841 32.7316 44.9997C32.7645 44.9998 32.7972 44.9998 32.8302 44.9998C37.0414 44.9998 40.6179 43.6482 43.1784 41.0878C43.2006 41.0655 43.2222 41.0427 43.2432 41.0193L43.2888 40.9686C44.4522 39.6724 45.0584 38.0001 44.9956 36.2595Z" fill="#86BC42"/>
</g>
<defs>
<clipPath id="clip0_133_97808">
<rect width="45" height="45" fill="white"/>
</clipPath>
</defs>
</svg>
