<svg width="13" height="14" viewBox="0 0 13 14" fill="none" xmlns="http://www.w3.org/2000/svg">
<path d="M12.5938 7.04224C12.5938 8.17635 12.306 9.22583 11.7305 10.1907C11.1719 11.1555 10.4102 11.9172 9.44531 12.4758C8.48047 13.0514 7.43099 13.3391 6.29688 13.3391C5.65365 13.3391 5.03581 13.246 4.44336 13.0598C4.84961 12.3827 5.10352 11.8326 5.20508 11.4094L5.61133 9.91138C5.71289 10.1145 5.89909 10.2838 6.16992 10.4192C6.44076 10.5546 6.73698 10.6223 7.05859 10.6223C7.66797 10.6223 8.2181 10.453 8.70898 10.1145C9.2168 9.75903 9.60612 9.28507 9.87695 8.69263C10.1647 8.10018 10.3086 7.45695 10.3086 6.76294C10.3086 6.052 10.1393 5.41724 9.80078 4.85864C9.46224 4.30005 8.99674 3.86841 8.4043 3.56372C7.81185 3.24211 7.15169 3.0813 6.42383 3.0813C5.56055 3.0813 4.79883 3.25903 4.13867 3.6145C3.54622 3.95304 3.08073 4.41854 2.74219 5.01099C2.42057 5.58651 2.25977 6.21281 2.25977 6.88989C2.25977 7.38078 2.37826 7.87166 2.61523 8.36255C2.86914 8.83651 3.18229 9.15812 3.55469 9.32739C3.67318 9.37817 3.74089 9.35278 3.75781 9.25122L3.93555 8.54028C3.95247 8.47257 3.93555 8.41333 3.88477 8.36255C3.74935 8.19328 3.63932 7.98169 3.55469 7.72778C3.47005 7.45695 3.42773 7.18612 3.42773 6.91528C3.42773 6.44132 3.53776 6.00122 3.75781 5.59497C3.99479 5.17179 4.32487 4.83325 4.74805 4.57935C5.18815 4.30851 5.69596 4.1731 6.27148 4.1731C7.05013 4.1731 7.6849 4.41854 8.17578 4.90942C8.66667 5.38338 8.91211 5.99276 8.91211 6.73755C8.91211 7.5839 8.71745 8.27791 8.32812 8.81958C7.95573 9.36125 7.49023 9.63208 6.93164 9.63208C6.61003 9.63208 6.35612 9.52205 6.16992 9.302C5.98372 9.06502 5.92448 8.79419 5.99219 8.4895C6.02604 8.3033 6.10221 8.03247 6.2207 7.677C6.4069 7.0507 6.5 6.61906 6.5 6.38208C6.5 6.12817 6.43229 5.92505 6.29688 5.77271C6.16146 5.60343 5.9668 5.5188 5.71289 5.5188C5.39128 5.5188 5.12044 5.66268 4.90039 5.95044C4.68034 6.2382 4.57031 6.60213 4.57031 7.04224C4.57031 7.41463 4.62956 7.72778 4.74805 7.98169L4.03711 11.1047C3.93555 11.5279 3.92708 12.1288 4.01172 12.9075C2.8099 12.4504 1.83659 11.6887 1.0918 10.6223C0.363932 9.55591 0 8.36255 0 7.04224C0 5.90812 0.279297 4.85864 0.837891 3.8938C1.41341 2.92896 2.18359 2.16724 3.14844 1.60864C4.11328 1.03312 5.16276 0.745361 6.29688 0.745361C7.43099 0.745361 8.48047 1.03312 9.44531 1.60864C10.4102 2.16724 11.1719 2.92896 11.7305 3.8938C12.306 4.85864 12.5938 5.90812 12.5938 7.04224Z" fill="#4F4F4F"/>
</svg>
