<svg width="21" height="16" viewBox="0 0 21 16" fill="none" xmlns="http://www.w3.org/2000/svg">
<path d="M18.7031 4.375H16.125V1.40625C16.125 0.63082 15.4942 0 14.7188 0H6.28125C5.50582 0 4.875 0.63082 4.875 1.40625V4.375H2.29688C1.30609 4.375 0.5 5.18109 0.5 6.17188V13.8281C0.5 14.8189 1.30609 15.625 2.29688 15.625H6.125H14.875H18.7031C19.6939 15.625 20.5 14.8189 20.5 13.8281V6.17188C20.5 5.18109 19.6939 4.375 18.7031 4.375ZM6.125 1.40625C6.125 1.32008 6.19508 1.25 6.28125 1.25H14.7188C14.8049 1.25 14.875 1.32008 14.875 1.40625V4.375H6.125V1.40625ZM6.75 14.375V13.2812C6.75 13.1951 6.82008 13.125 6.90625 13.125H14.0938C14.1799 13.125 14.25 13.1951 14.25 13.2812V14.375H6.75ZM19.25 13.8281C19.25 14.1297 19.0047 14.375 18.7031 14.375H15.5V13.2812C15.5 12.5058 14.8692 11.875 14.0938 11.875H6.90625C6.13082 11.875 5.5 12.5058 5.5 13.2812V14.375H2.29688C1.99531 14.375 1.75 14.1297 1.75 13.8281V6.17188C1.75 5.87031 1.99531 5.625 2.29688 5.625H5.5H15.5H18.7031C19.0047 5.625 19.25 5.87031 19.25 6.17188V13.8281Z" fill="white"/>
<path d="M4.8752 8.75C4.53004 8.75 4.25 8.47016 4.25 8.125C4.25 7.77984 4.52961 7.5 4.8748 7.5H4.8752C5.22035 7.5 5.5002 7.77984 5.5002 8.125C5.5002 8.47016 5.22035 8.75 4.8752 8.75Z" fill="white"/>
</svg>
