<svg width="30" height="29" viewBox="0 0 30 29" fill="none" xmlns="http://www.w3.org/2000/svg">
<path d="M3.10536 28.8757C2.03327 27.1427 1.23845 25.4096 0.720887 23.6765C0.240296 21.9073 0 20.1562 0 18.4231C0 15.1736 0.813309 12.0685 2.43993 9.10784C4.10351 6.11106 6.41405 3.36703 9.37153 0.875732L12.4214 2.71712C12.7172 2.89765 12.902 3.09623 12.976 3.31287C13.0869 3.5295 13.1423 3.74614 13.1423 3.96277C13.1423 4.46825 12.9575 4.90152 12.5878 5.26258C11.9963 5.98469 11.4233 6.74291 10.8688 7.53724C10.3142 8.33157 9.81516 9.18005 9.37153 10.0827C8.92791 10.9492 8.57671 11.8699 8.31793 12.8448C8.05915 13.8196 7.92976 14.8487 7.92976 15.9318C7.92976 17.0872 8.09612 18.2787 8.42883 19.5063C8.79852 20.7339 9.4085 22.0337 10.2588 23.4057C10.5176 23.8029 10.6469 24.2181 10.6469 24.6514C10.6469 25.5179 10.1479 26.1317 9.14972 26.4928L3.10536 28.8757ZM19.963 28.8757C18.8909 27.1427 18.0961 25.4096 17.5786 23.6765C17.098 21.9073 16.8577 20.1562 16.8577 18.4231C16.8577 15.1736 17.671 12.0685 19.2976 9.10784C20.9612 6.11106 23.2717 3.36703 26.2292 0.875732L29.2791 2.71712C29.5749 2.89765 29.7597 3.09623 29.8336 3.31287C29.9445 3.5295 30 3.74614 30 3.96277C30 4.46825 29.8152 4.90152 29.4455 5.26258C28.854 5.98469 28.281 6.74291 27.7264 7.53724C27.1719 8.33157 26.6728 9.18005 26.2292 10.0827C25.7856 10.9492 25.4344 11.8699 25.1756 12.8448C24.9168 13.8196 24.7874 14.8487 24.7874 15.9318C24.7874 17.0872 24.9538 18.2787 25.2865 19.5063C25.6562 20.7339 26.2662 22.0337 27.1165 23.4057C27.3752 23.8029 27.5046 24.2181 27.5046 24.6514C27.5046 25.5179 27.0055 26.1317 26.0074 26.4928L19.963 28.8757Z" fill="white"/>
</svg>
