<svg width="40" height="41" viewBox="0 0 40 41" fill="none" xmlns="http://www.w3.org/2000/svg">
<g clip-path="url(#clip0_131_32743)">
<path d="M36.3512 17.5232C36.8118 13.9764 34.9382 10.5092 31.6646 8.96304C29.8254 8.09429 27.7985 7.95226 25.9414 8.4571C24.9491 7.57109 23.7295 6.95953 22.4302 6.69774C21.332 3.29392 18.1569 0.958618 14.5365 0.958618C10.9162 0.958618 7.74109 3.29337 6.64296 6.69727C3.1836 7.38898 0.635254 10.4556 0.635254 14.0343C0.635254 16.1829 1.53728 18.1887 3.12626 19.6089C3.06978 19.9814 3.04134 20.3586 3.04134 20.7355C3.04134 23.8454 4.94821 26.6055 7.82366 27.7155C8.36397 28.9419 9.22561 29.9918 10.3324 30.7673C11.3542 31.4833 12.5248 31.9193 13.7553 32.0493V37.2735C13.7553 37.7049 14.1051 38.0547 14.5365 38.0547C14.9679 38.0547 15.3178 37.7049 15.3178 37.2735V34.4265C15.92 35.3732 16.7241 36.1606 17.68 36.7421L16.215 39.8436C16.0308 40.2337 16.1976 40.6994 16.5878 40.8836C16.6956 40.9346 16.8091 40.9586 16.9209 40.9586C17.2137 40.9586 17.4945 40.7932 17.6278 40.5109L19.0925 37.4099C19.8678 37.6807 20.6767 37.8182 21.4928 37.8182C21.9064 37.8182 22.3218 37.783 22.7354 37.712C24.0674 37.4834 25.2949 36.9022 26.3072 36.0241C26.4903 36.0375 26.6728 36.044 26.8544 36.044C29.7212 36.0439 32.3636 34.3993 33.6125 31.7551C33.7735 31.4144 33.9088 31.061 34.0169 30.7002C36.0601 30.0947 37.7325 28.6662 38.6501 26.7234C40.1784 23.4874 39.1838 19.6261 36.3512 17.5232ZM9.1435 26.8184C9.05975 26.5994 8.8821 26.4297 8.65968 26.3559C6.23367 25.5518 4.60375 23.2931 4.60375 20.7356C4.60375 20.3101 4.64954 19.8842 4.73985 19.4695C4.80352 19.1772 4.69477 18.8743 4.45969 18.6893C3.0222 17.5578 2.19767 15.8611 2.19767 14.0343C2.19767 11.0644 4.41516 8.54031 7.35562 8.16297C7.67327 8.12218 7.93382 7.89172 8.01312 7.58148C8.77452 4.60196 11.457 2.52111 14.5365 2.52111C17.616 2.52111 20.2985 4.60196 21.0599 7.58133C21.1392 7.89164 21.3997 8.12203 21.7173 8.16281C22.6252 8.27937 23.4971 8.61234 24.256 9.12171C23.4563 9.54265 22.7172 10.0975 22.0763 10.7808C19.6483 10.1766 17.1254 10.8492 15.3178 12.4452V9.47866C15.3178 9.04726 14.9679 8.69742 14.5365 8.69742C14.1051 8.69742 13.7553 9.04726 13.7553 9.47866V13.919C12.6733 12.7554 11.149 12.0744 9.50264 12.0744C9.07124 12.0744 8.72139 12.4243 8.72139 12.8557C8.72139 13.2871 9.07124 13.6369 9.50264 13.6369C11.0209 13.6369 12.3979 14.4289 13.1627 15.7224C12.6774 17.1995 12.6661 18.7759 13.1268 20.2557C12.1093 19.445 10.8358 18.9875 9.50264 18.9875C9.07124 18.9875 8.72139 19.3373 8.72139 19.7687C8.72139 20.2001 9.07124 20.5499 9.50264 20.5499C10.7672 20.5499 11.9575 21.114 12.7622 22.0741C11.6019 24.663 12.0074 27.6475 13.7553 29.8187V30.4739C11.6957 30.1881 9.8985 28.7916 9.1435 26.8184ZM37.2371 26.0559C36.457 27.7078 34.9868 28.8898 33.2038 29.2989C32.9123 29.3658 32.6846 29.5933 32.6172 29.8846C32.5218 30.298 32.3812 30.7029 32.1995 31.0877C31.1072 33.4002 28.6692 34.7467 26.1317 34.4375C25.899 34.4096 25.6659 34.4867 25.4967 34.649C23.9713 36.1107 21.7499 36.606 19.7655 35.9847L22.1877 30.8565C22.6728 29.8295 23.5288 29.0528 24.5981 28.6696C25.6674 28.2863 26.8219 28.3424 27.8491 28.8276C28.2392 29.0117 28.7048 28.845 28.8891 28.4548C29.0733 28.0648 28.9065 27.5991 28.5163 27.4148C26.9996 26.6984 25.3263 26.6987 23.8789 27.2757L25.1398 24.6062L25.1399 24.6059C25.6251 23.5789 26.4812 22.8021 27.5504 22.4189C28.6198 22.0358 29.7742 22.0917 30.8014 22.5769C31.1917 22.761 31.6572 22.5943 31.8414 22.2042C32.0256 21.8141 31.8588 21.3484 31.4686 21.1642C30.0641 20.5008 28.4854 20.4242 27.0233 20.948C26.959 20.971 26.896 20.9964 26.8329 21.0215L28.732 17.0007C28.9162 16.6107 28.7494 16.145 28.3593 15.9607C27.969 15.7764 27.5036 15.9433 27.3193 16.3335L25.4185 20.3578C24.9448 18.8733 23.8821 17.5809 22.3653 16.8644C21.975 16.6802 21.5096 16.847 21.3253 17.2371C21.1411 17.6272 21.3079 18.0929 21.6981 18.2771C23.8181 19.2785 24.7283 21.8178 23.7274 23.9379L22.4677 26.6048C22.447 26.5402 22.4267 26.4755 22.4036 26.4112C21.8795 24.9489 20.8174 23.7784 19.4129 23.115C19.0227 22.9306 18.5571 23.0976 18.3729 23.4877C18.1887 23.8778 18.3555 24.3435 18.7457 24.5277C19.7727 25.0129 20.5495 25.869 20.9327 26.9382C21.3159 28.0076 21.2599 29.1621 20.7747 30.1892V30.1893L18.3527 35.3172C16.6125 34.1793 15.5838 32.1489 15.7439 30.0423C15.7616 29.8087 15.6736 29.5793 15.5039 29.4176C13.6536 27.6544 13.1445 24.9159 14.2368 22.6034C14.4186 22.2185 14.6419 21.8528 14.9006 21.5166C15.083 21.2796 15.1139 20.9591 14.9804 20.6914C14.1638 19.0544 14.1429 17.1681 14.9231 15.5163C15.9223 13.4008 18.0472 12.1233 20.2831 12.1233C20.8853 12.1233 21.4961 12.2161 22.0946 12.4102C22.3987 12.509 22.7332 12.4119 22.9374 12.1652C24.8984 9.7964 28.2125 9.06062 30.9971 10.3756C33.7817 11.6908 35.3184 14.718 34.7343 17.7372C34.6736 18.0516 34.8107 18.3713 35.0806 18.5438C37.5785 20.1411 38.5055 23.3706 37.2371 26.0559Z" fill="white"/>
<path d="M7.80473 10.2908C7.78598 10.2906 7.82356 10.2904 7.80473 10.2904C5.78262 10.2898 4.12316 11.8723 4.06574 13.8935C4.04223 14.7218 4.29027 15.4908 4.72731 16.1185C5.0084 16.5221 5.64293 16.2615 5.56817 15.7752C5.53488 15.559 5.51762 15.3376 5.51762 15.112C5.51762 13.3744 6.53996 11.8756 8.01606 11.1842C8.46777 10.9726 8.30348 10.2984 7.80473 10.2908Z" fill="white"/>
<path d="M20.036 14.1189C20.0173 14.1187 20.0549 14.1185 20.036 14.1185C18.0139 14.1179 16.3545 15.7004 16.2971 17.7217C16.2736 18.5499 16.5216 19.3189 16.9586 19.9466C17.2397 20.3502 17.8743 20.0896 17.7995 19.6034C17.7662 19.3871 17.7489 19.1657 17.7489 18.9402C17.7489 17.2025 18.7713 15.7037 20.2474 15.0123C20.699 14.8007 20.5348 14.1265 20.036 14.1189Z" fill="white"/>
</g>
<defs>
<clipPath id="clip0_131_32743">
<rect width="40" height="40" fill="white" transform="translate(0 0.958618)"/>
</clipPath>
</defs>
</svg>
