<svg width="13" height="12" viewBox="0 0 13 12" fill="none" xmlns="http://www.w3.org/2000/svg">
<path d="M11.6543 3.40161C11.6712 3.46932 11.6797 3.57935 11.6797 3.73169C11.6797 4.95044 11.3835 6.12687 10.791 7.26099C10.1816 8.46281 9.32682 9.41919 8.22656 10.1301C7.02474 10.9257 5.64518 11.3235 4.08789 11.3235C2.59831 11.3235 1.23568 10.9257 0 10.1301C0.186198 10.1471 0.397786 10.1555 0.634766 10.1555C1.87044 10.1555 2.97917 9.77466 3.96094 9.01294C3.36849 9.01294 2.84375 8.84367 2.38672 8.50513C1.94661 8.14966 1.64193 7.70955 1.47266 7.18481C1.64193 7.20174 1.80273 7.21021 1.95508 7.21021C2.19206 7.21021 2.42904 7.18481 2.66602 7.13403C2.05664 6.99862 1.54883 6.68547 1.14258 6.19458C0.736328 5.70369 0.533203 5.1451 0.533203 4.5188V4.46802C0.905599 4.68807 1.30339 4.80656 1.72656 4.82349C1.37109 4.56958 1.08333 4.24797 0.863281 3.85864C0.643229 3.46932 0.533203 3.04614 0.533203 2.58911C0.533203 2.11515 0.660156 1.66659 0.914062 1.24341C1.57422 2.07284 2.37826 2.73299 3.32617 3.22388C4.29102 3.71476 5.3151 3.9856 6.39844 4.03638C6.36458 3.83325 6.34766 3.63013 6.34766 3.427C6.34766 2.95304 6.46615 2.51294 6.70312 2.10669C6.9401 1.68351 7.26172 1.35343 7.66797 1.11646C8.07422 0.879476 8.51432 0.760986 8.98828 0.760986C9.3776 0.760986 9.73307 0.837158 10.0547 0.989502C10.3932 1.14185 10.6895 1.34497 10.9434 1.59888C11.5527 1.48039 12.1198 1.2688 12.6445 0.964111C12.4414 1.59041 12.0521 2.0813 11.4766 2.43677C11.9844 2.36906 12.4922 2.22518 13 2.00513C12.6276 2.54679 12.179 3.01229 11.6543 3.40161Z" fill="#86BC42"/>
</svg>
